<svg width="24" height="24" viewBox="0 0 24 24" fill="none" xmlns="http://www.w3.org/2000/svg">
<path d="M9.51722 15.5578L12 14.052L14.4827 15.5578L13.823 12.7328L16.0192 10.848L13.1327 10.5923L12 7.94225L10.8672 10.5923L7.98072 10.848L10.177 12.7328L9.51722 15.5578ZM12 21.9155L9.07297 19H4.99997V14.927L2.08447 12L4.99997 9.073V5H9.07297L12 2.0845L14.927 5H19V9.073L21.9155 12L19 14.927V19H14.927L12 21.9155ZM12 20.5L14.5 18H18V14.5L20.5 12L18 9.5V6H14.5L12 3.5L9.49997 6H5.99997V9.5L3.49997 12L5.99997 14.5V18H9.49997L12 20.5Z" fill="#A7A7A7"/>
</svg>
